<svg width="25" height="25" viewBox="0 0 25 25" fill="none" xmlns="http://www.w3.org/2000/svg">
<path d="M2.65646 12.3438C2.73854 12.4053 2.83194 12.4501 2.93132 12.4756C3.03071 12.501 3.13414 12.5067 3.2357 12.4922C3.33726 12.4777 3.43497 12.4433 3.52326 12.391C3.61154 12.3387 3.68866 12.2696 3.75021 12.1875C4.22323 11.5568 4.83658 11.0449 5.54171 10.6924C6.24683 10.3398 7.02436 10.1563 7.81271 10.1563C8.60107 10.1563 9.3786 10.3398 10.0837 10.6924C10.7888 11.0449 11.4022 11.5568 11.8752 12.1875C11.9997 12.3531 12.1848 12.4625 12.3899 12.4916C12.595 12.5208 12.8033 12.4672 12.969 12.3428C13.028 12.2989 13.0803 12.2466 13.1242 12.1875C13.5973 11.5568 14.2106 11.0449 14.9157 10.6924C15.6209 10.3398 16.3984 10.1563 17.1867 10.1563C17.9751 10.1563 18.7526 10.3398 19.4577 10.6924C20.1629 11.0449 20.7762 11.5568 21.2492 12.1875C21.3737 12.3533 21.5589 12.4628 21.7641 12.492C21.9693 12.5212 22.1777 12.4677 22.3435 12.3433C22.5092 12.2188 22.6188 12.0336 22.648 11.8284C22.6772 11.6232 22.6237 11.4148 22.4992 11.249C21.8077 10.322 20.8855 9.59203 19.8244 9.13185C20.4062 8.60074 20.8137 7.90616 20.9936 7.13927C21.1736 6.37238 21.1174 5.56901 20.8326 4.8346C20.5478 4.10019 20.0475 3.46905 19.3976 3.02401C18.7477 2.57897 17.9784 2.34082 17.1906 2.34082C16.4029 2.34082 15.6336 2.57897 14.9837 3.02401C14.3337 3.46905 13.8335 4.10019 13.5487 4.8346C13.2639 5.56901 13.2077 6.37238 13.3876 7.13927C13.5676 7.90616 13.9751 8.60074 14.5569 9.13185C13.7907 9.46315 13.0947 9.93743 12.5061 10.5293C11.9175 9.93743 11.2215 9.46315 10.4553 9.13185C11.037 8.60074 11.4446 7.90616 11.6245 7.13927C11.8044 6.37238 11.7483 5.56901 11.4634 4.8346C11.1786 4.10019 10.6784 3.46905 10.0285 3.02401C9.37852 2.57897 8.60921 2.34082 7.8215 2.34082C7.03379 2.34082 6.26449 2.57897 5.61454 3.02401C4.9646 3.46905 4.46439 4.10019 4.17956 4.8346C3.89473 5.56901 3.83859 6.37238 4.01851 7.13927C4.19842 7.90616 4.60599 8.60074 5.18771 9.13185C4.12194 9.59053 3.19523 10.3209 2.50021 11.25C2.43866 11.3321 2.39387 11.4255 2.36841 11.5249C2.34294 11.6243 2.33731 11.7277 2.35182 11.8292C2.36632 11.9308 2.4007 12.0285 2.45297 12.1168C2.50524 12.2051 2.57439 12.2822 2.65646 12.3438ZM17.1877 3.90626C17.6513 3.90626 18.1044 4.04372 18.4898 4.30126C18.8753 4.55879 19.1757 4.92483 19.3531 5.3531C19.5305 5.78136 19.5769 6.25261 19.4864 6.70726C19.396 7.1619 19.1728 7.57952 18.845 7.90729C18.5172 8.23507 18.0996 8.45829 17.645 8.54873C17.1903 8.63916 16.7191 8.59275 16.2908 8.41536C15.8625 8.23796 15.4965 7.93756 15.239 7.55213C14.9814 7.1667 14.844 6.71356 14.844 6.25001C14.844 5.62841 15.0909 5.03227 15.5304 4.59273C15.97 4.15319 16.5661 3.90626 17.1877 3.90626ZM7.81271 3.90626C8.27626 3.90626 8.7294 4.04372 9.11483 4.30126C9.50026 4.55879 9.80066 4.92483 9.97806 5.3531C10.1554 5.78136 10.2019 6.25261 10.1114 6.70726C10.021 7.1619 9.79778 7.57952 9.47 7.90729C9.14222 8.23507 8.7246 8.45829 8.26996 8.54873C7.81531 8.63916 7.34406 8.59275 6.9158 8.41536C6.48754 8.23796 6.12149 7.93756 5.86396 7.55213C5.60642 7.1667 5.46896 6.71356 5.46896 6.25001C5.46896 5.62841 5.71589 5.03227 6.15543 4.59273C6.59497 4.15319 7.19111 3.90626 7.81271 3.90626ZM19.8244 19.2881C20.4062 18.757 20.8137 18.0624 20.9936 17.2955C21.1736 16.5286 21.1174 15.7253 20.8326 14.9909C20.5478 14.2564 20.0475 13.6253 19.3976 13.1803C18.7477 12.7352 17.9784 12.4971 17.1906 12.4971C16.4029 12.4971 15.6336 12.7352 14.9837 13.1803C14.3337 13.6253 13.8335 14.2564 13.5487 14.9909C13.2639 15.7253 13.2077 16.5286 13.3876 17.2955C13.5676 18.0624 13.9751 18.757 14.5569 19.2881C13.7907 19.6194 13.0947 20.0937 12.5061 20.6856C11.9175 20.0937 11.2215 19.6194 10.4553 19.2881C11.037 18.757 11.4446 18.0624 11.6245 17.2955C11.8044 16.5286 11.7483 15.7253 11.4634 14.9909C11.1786 14.2564 10.6784 13.6253 10.0285 13.1803C9.37852 12.7352 8.60921 12.4971 7.8215 12.4971C7.03379 12.4971 6.26449 12.7352 5.61454 13.1803C4.9646 13.6253 4.46439 14.2564 4.17956 14.9909C3.89473 15.7253 3.83859 16.5286 4.01851 17.2955C4.19842 18.0624 4.60599 18.757 5.18771 19.2881C4.12194 19.7468 3.19523 20.4772 2.50021 21.4063C2.43866 21.4883 2.39387 21.5817 2.36841 21.6811C2.34294 21.7805 2.33731 21.8839 2.35182 21.9855C2.36632 22.0871 2.4007 22.1848 2.45297 22.2731C2.50524 22.3613 2.57439 22.4385 2.65646 22.5C2.73854 22.5616 2.83194 22.6064 2.93132 22.6318C3.03071 22.6573 3.13414 22.6629 3.2357 22.6484C3.33726 22.6339 3.43497 22.5995 3.52326 22.5473C3.61154 22.495 3.68866 22.4258 3.75021 22.3438C4.22323 21.7131 4.83658 21.2012 5.54171 20.8486C6.24683 20.4961 7.02436 20.3125 7.81271 20.3125C8.60107 20.3125 9.3786 20.4961 10.0837 20.8486C10.7888 21.2012 11.4022 21.7131 11.8752 22.3438C11.9997 22.5094 12.1848 22.6188 12.3899 22.6479C12.595 22.677 12.8033 22.6235 12.969 22.499C13.028 22.4551 13.0803 22.4028 13.1242 22.3438C13.5973 21.7131 14.2106 21.2012 14.9157 20.8486C15.6209 20.4961 16.3984 20.3125 17.1867 20.3125C17.9751 20.3125 18.7526 20.4961 19.4577 20.8486C20.1629 21.2012 20.7762 21.7131 21.2492 22.3438C21.3737 22.5095 21.5589 22.6191 21.7641 22.6483C21.9693 22.6775 22.1777 22.624 22.3435 22.4995C22.5092 22.3751 22.6188 22.1899 22.648 21.9847C22.6772 21.7795 22.6237 21.571 22.4992 21.4053C21.8077 20.4782 20.8855 19.7483 19.8244 19.2881ZM7.81271 14.0625C8.27626 14.0625 8.7294 14.2 9.11483 14.4575C9.50026 14.715 9.80066 15.0811 9.97806 15.5093C10.1554 15.9376 10.2019 16.4089 10.1114 16.8635C10.021 17.3181 9.79778 17.7358 9.47 18.0635C9.14222 18.3913 8.7246 18.6145 8.26996 18.705C7.81531 18.7954 7.34406 18.749 6.9158 18.5716C6.48754 18.3942 6.12149 18.0938 5.86396 17.7084C5.60642 17.323 5.46896 16.8698 5.46896 16.4063C5.46896 15.7847 5.71589 15.1885 6.15543 14.749C6.59497 14.3094 7.19111 14.0625 7.81271 14.0625ZM17.1877 14.0625C17.6513 14.0625 18.1044 14.2 18.4898 14.4575C18.8753 14.715 19.1757 15.0811 19.3531 15.5093C19.5305 15.9376 19.5769 16.4089 19.4864 16.8635C19.396 17.3181 19.1728 17.7358 18.845 18.0635C18.5172 18.3913 18.0996 18.6145 17.645 18.705C17.1903 18.7954 16.7191 18.749 16.2908 18.5716C15.8625 18.3942 15.4965 18.0938 15.239 17.7084C14.9814 17.323 14.844 16.8698 14.844 16.4063C14.844 15.7847 15.0909 15.1885 15.5304 14.749C15.97 14.3094 16.5661 14.0625 17.1877 14.0625Z" fill="white"/>
</svg>
