<svg width="25" height="25" viewBox="0 0 25 25" fill="none" xmlns="http://www.w3.org/2000/svg">
<path d="M10.7908 1.03748C11.2756 0.649118 11.8783 0.4375 12.4994 0.4375C13.1206 0.4375 13.7232 0.649118 14.208 1.03748L22.4112 7.59998C23.0596 8.11873 23.4377 8.90467 23.4377 9.73592V20.7031C23.4377 21.4283 23.1496 22.1238 22.6368 22.6366C22.124 23.1494 21.4285 23.4375 20.7033 23.4375H15.2346C14.9238 23.4375 14.6257 23.314 14.4059 23.0942C14.1862 22.8745 14.0627 22.5764 14.0627 22.2656V14.0625H10.9377V22.2656C10.9377 22.5764 10.8142 22.8745 10.5945 23.0942C10.3747 23.314 10.0766 23.4375 9.76584 23.4375H4.29709C3.57189 23.4375 2.87639 23.1494 2.36359 22.6366C1.8508 22.1238 1.56271 21.4283 1.56271 20.7031V9.73436C1.56271 8.90467 1.94084 8.11873 2.58928 7.59998L10.7908 1.03748ZM12.744 2.86717C12.6747 2.81189 12.5888 2.78179 12.5002 2.78179C12.4116 2.78179 12.3257 2.81189 12.2565 2.86717L4.05334 9.42967C4.00738 9.46637 3.97031 9.51297 3.94487 9.56599C3.91944 9.61902 3.90631 9.67711 3.90646 9.73592V20.7031C3.90646 20.9187 4.08146 21.0937 4.29709 21.0937H8.59396V12.8906C8.59396 12.5798 8.71743 12.2817 8.9372 12.062C9.15697 11.8422 9.45504 11.7187 9.76584 11.7187H15.2346C15.5454 11.7187 15.8435 11.8422 16.0632 12.062C16.283 12.2817 16.4065 12.5798 16.4065 12.8906V21.0937H20.7033C20.8069 21.0937 20.9063 21.0526 20.9796 20.9793C21.0528 20.9061 21.094 20.8067 21.094 20.7031V9.73436C21.0939 9.67581 21.0806 9.61803 21.0552 9.56529C21.0298 9.51255 20.9928 9.4662 20.9471 9.42967L12.744 2.86717Z" fill="white"/>
</svg>
