<svg width="170" height="65" viewBox="0 0 170 65" fill="none" xmlns="http://www.w3.org/2000/svg">
<path d="M32.7718 31.1227H26.5259V63.9061H32.7718V31.1227Z" fill="#44A3FF"/>
<path d="M40.5449 52.756V52.8598C40.5449 54.5946 40.9419 55.8549 41.7208 56.6408C42.5149 57.4414 43.7824 57.827 45.5233 57.827C47.0199 57.827 48.6844 57.1004 50.517 55.6621L50.5475 39.6189H56.7934L56.8087 59.0428C53.449 62.2752 49.6923 63.9062 45.5233 63.9062C42.072 63.8914 39.3385 62.8683 37.3227 60.8517C35.3069 58.8352 34.3143 56.1366 34.3448 52.756V39.6189H40.5449V52.756Z" fill="#44A3FF"/>
<path d="M70.7513 63.9062C67.3153 63.9062 64.3832 62.72 61.9551 60.3328C59.4354 57.9159 58.2137 54.9653 58.2748 51.5105C58.3358 48.2188 59.7561 45.1792 62.23 42.9106C64.6123 40.7161 67.468 39.6189 70.7818 39.6189C74.2026 39.6189 77.5317 40.9978 79.8834 43.4147C80.2958 43.8447 80.6775 44.2747 81.0135 44.7344C82.7086 47.0029 81.9145 49.9091 79.3337 51.1398L77.0125 52.237V52.2074L67.1931 56.789C67.8956 57.2783 68.6591 57.6045 69.4991 57.7676V57.738C69.9114 57.8418 70.3695 57.8863 70.8582 57.8863C72.6144 57.8566 74.6913 57.1152 77.1346 55.677L79.7307 61.2373C76.4016 63.0165 73.4085 63.9062 70.7513 63.9062ZM74.7829 47.1957C73.4543 46.1874 72.1104 45.6981 70.7818 45.6981C69.0409 45.6981 67.5749 46.2912 66.3532 47.4774C65.4675 48.3522 65.0246 49.7164 65.0246 51.5846V51.7774L74.7829 47.1957Z" fill="#44A3FF"/>
<path d="M94.4065 55.232C93.4138 54.7724 91.5508 54.2089 88.7714 53.5269C87.733 53.1858 86.8014 52.6076 85.9462 51.8069C84.4802 50.4131 83.7472 48.7376 83.7472 46.7804C83.7472 44.8232 84.4802 43.1477 85.9462 41.7391C87.4123 40.3305 89.367 39.515 91.8256 39.2481C92.3907 39.1888 92.9862 39.1443 93.6276 39.1443C95.6587 39.1443 97.9799 39.4705 100.576 40.1081L99.2016 45.9797C97.1247 45.2977 95.4449 44.9566 94.1163 44.9566H93.9178C92.4059 44.9566 91.3675 45.1197 90.8177 45.4608C90.268 45.8166 89.9931 46.2614 89.9931 46.7656V46.8694C89.9931 47.3142 90.2985 47.6404 90.8941 47.8925C91.9325 48.3818 93.7651 48.9155 96.4222 49.5235C97.4454 49.8793 98.3159 50.4428 99.0489 51.2286C100.515 52.6224 101.248 54.2979 101.248 56.2551C101.248 58.2272 100.515 59.9175 99.0489 61.3113C97.5981 62.6902 95.6434 63.5057 93.2 63.7874C92.7114 63.8467 92.2074 63.8912 91.6729 63.8912C89.4433 63.8912 86.6487 63.4019 83.2891 62.4381L84.8162 56.7592C87.7177 57.7082 89.8862 58.1827 91.3217 58.1827H91.7035C92.8183 58.1827 93.6429 58.0196 94.1621 57.6785C94.7272 57.3079 95.0173 56.8334 95.0173 56.2699V56.1661C95.0173 55.751 94.8188 55.4396 94.4065 55.232Z" fill="white"/>
<path d="M109.036 46.8694C109.952 46.1577 111.571 44.5267 113.923 42.2136C116.091 40.0933 119.665 40.2712 121.589 42.5991L121.818 42.8809C120.474 43.9336 116.107 48.2187 115.267 49.316C116.779 51.9701 121.543 61.1631 123.025 63.8913H118.825C117.023 63.8913 115.358 62.9423 114.488 61.4003C112.64 58.1234 109.784 53.0821 108.99 51.7477L109.021 63.8913H102.775L102.76 31.1079H109.006L109.036 46.8694Z" fill="white"/>
<path d="M130.813 40.9829H124.567V63.9061H130.813V40.9829Z" fill="white"/>
<path d="M140.296 35.2003H134.05V63.9062H140.296V35.2003Z" fill="white"/>
<path d="M149.779 31.1227H143.533V63.9061H149.779V31.1227Z" fill="white"/>
<path d="M162.409 55.232C161.416 54.7724 159.553 54.2089 156.773 53.5269C155.735 53.1858 154.803 52.6076 153.948 51.8069C152.482 50.4131 151.749 48.7376 151.749 46.7804C151.749 44.8232 152.482 43.1477 153.948 41.7391C155.414 40.3305 157.369 39.515 159.828 39.2481C160.393 39.1888 160.988 39.1443 161.63 39.1443C163.661 39.1443 165.982 39.4705 168.578 40.1081L167.204 45.9797C165.127 45.2977 163.447 44.9566 162.118 44.9566H161.92C160.408 44.9566 159.37 45.1197 158.82 45.4608C158.27 45.8166 157.995 46.2614 157.995 46.7656V46.8694C157.995 47.3142 158.301 47.6404 158.896 47.8925C159.935 48.3818 161.767 48.9155 164.424 49.5235C165.447 49.8793 166.318 50.4428 167.051 51.2286C168.517 52.6224 169.25 54.2979 169.25 56.2551C169.25 58.2272 168.517 59.9175 167.051 61.3113C165.6 62.6902 163.645 63.5057 161.202 63.7874C160.713 63.8467 160.209 63.8912 159.675 63.8912C157.445 63.8912 154.651 63.4019 151.291 62.4381L152.818 56.7592C155.72 57.7082 157.888 58.1827 159.324 58.1827H159.706C160.82 58.1827 161.645 58.0196 162.164 57.6785C162.729 57.3079 163.019 56.8334 163.019 56.2699V56.1661C163.004 55.751 162.806 55.4396 162.409 55.232Z" fill="white"/>
<path d="M122.574 11.1971L118.363 15.286L124.14 20.8952L128.351 16.8063L122.574 11.1971Z" fill="#44A3FF"/>
<path d="M130.904 25.2362H124.948V32.4423H130.904V25.2362Z" fill="white"/>
<path d="M137.567 17.4168L133.355 21.5057L140.914 28.8449L145.126 24.7559L137.567 17.4168Z" fill="white"/>
<path d="M117.821 17.6566L110.262 24.9957L114.473 29.0847L122.032 21.7455L117.821 17.6566Z" fill="white"/>
<path d="M130.309 0H124.353V10.3792H130.309V0Z" fill="white"/>
<path d="M139.649 3.36376L132.09 10.7029L136.301 14.7918L143.86 7.4527L139.649 3.36376Z" fill="#606060"/>
<path d="M139.649 3.37161L122.847 19.6854L127.058 23.7744L143.86 7.46055L139.649 3.37161Z" fill="#44A3FF"/>
<path d="M114.557 3.62847L110.346 7.71741L116.123 13.3266L120.334 9.23765L114.557 3.62847Z" fill="white"/>
<path d="M0.0305423 33.3023C3.64981 31.7009 7.57449 30.9003 11.8199 30.9003H11.942C14.5381 30.9003 16.7525 31.7899 18.585 33.5544C20.4175 35.3188 21.3338 37.454 21.3338 39.9302C21.3338 41.7094 20.8604 43.3108 19.9136 44.7194C20.5092 45.1197 21.0895 45.5794 21.6545 46.1132C23.8383 48.2335 24.9225 50.7838 24.9225 53.7789C24.9225 56.7741 23.8383 59.3244 21.6545 61.4447C19.486 63.5354 16.8899 64.5881 13.8662 64.6178L0 64.5881L0.0305423 33.3023ZM6.18482 42.9401H12.1406C12.9041 42.8956 13.5608 42.5991 14.1258 42.0505C14.7214 41.4722 15.0268 40.7605 15.0268 39.9302C15.0268 39.0998 14.7214 38.3881 14.1258 37.795C13.5302 37.2019 12.7972 36.9202 11.9268 36.9202H11.7588C9.3154 36.9202 7.45232 37.3502 6.18482 38.225V42.9401ZM6.30699 48.9304V58.583L13.7746 58.6127C15.149 58.6127 16.3249 58.1382 17.2869 57.2041C18.249 56.27 18.7377 55.1282 18.7377 53.7641C18.7377 52.4297 18.249 51.2879 17.2869 50.3538C16.3249 49.4197 15.149 48.9452 13.7746 48.9452L6.30699 48.9304Z" fill="#44A3FF"/>
</svg>
