<svg width="30" height="30" viewBox="0 0 30 30" fill="none" xmlns="http://www.w3.org/2000/svg">
<path d="M3.75 11.25C4.08152 11.25 4.39946 11.1183 4.63388 10.8839C4.8683 10.6495 5 10.3315 5 10V6.25C5 5.91848 5.1317 5.60054 5.36612 5.36612C5.60054 5.1317 5.91848 5 6.25 5H10C10.3315 5 10.6495 4.8683 10.8839 4.63388C11.1183 4.39946 11.25 4.08152 11.25 3.75C11.25 3.41848 11.1183 3.10054 10.8839 2.86612C10.6495 2.6317 10.3315 2.5 10 2.5H6.25C5.25544 2.5 4.30161 2.89509 3.59835 3.59835C2.89509 4.30161 2.5 5.25544 2.5 6.25V10C2.5 10.3315 2.6317 10.6495 2.86612 10.8839C3.10054 11.1183 3.41848 11.25 3.75 11.25ZM10 25H6.25C5.91848 25 5.60054 24.8683 5.36612 24.6339C5.1317 24.3995 5 24.0815 5 23.75V20C5 19.6685 4.8683 19.3505 4.63388 19.1161C4.39946 18.8817 4.08152 18.75 3.75 18.75C3.41848 18.75 3.10054 18.8817 2.86612 19.1161C2.6317 19.3505 2.5 19.6685 2.5 20V23.75C2.5 24.7446 2.89509 25.6984 3.59835 26.4017C4.30161 27.1049 5.25544 27.5 6.25 27.5H10C10.3315 27.5 10.6495 27.3683 10.8839 27.1339C11.1183 26.8995 11.25 26.5815 11.25 26.25C11.25 25.9185 11.1183 25.6005 10.8839 25.3661C10.6495 25.1317 10.3315 25 10 25ZM15 10C14.0111 10 13.0444 10.2932 12.2221 10.8427C11.3999 11.3921 10.759 12.173 10.3806 13.0866C10.0022 14.0002 9.90315 15.0055 10.0961 15.9755C10.289 16.9454 10.7652 17.8363 11.4645 18.5355C12.1637 19.2348 13.0546 19.711 14.0245 19.9039C14.9945 20.0969 15.9998 19.9978 16.9134 19.6194C17.827 19.241 18.6079 18.6001 19.1573 17.7779C19.7068 16.9556 20 15.9889 20 15C20 13.6739 19.4732 12.4021 18.5355 11.4645C17.5979 10.5268 16.3261 10 15 10ZM15 17.5C14.5055 17.5 14.0222 17.3534 13.6111 17.0787C13.2 16.804 12.8795 16.4135 12.6903 15.9567C12.5011 15.4999 12.4516 14.9972 12.548 14.5123C12.6445 14.0273 12.8826 13.5819 13.2322 13.2322C13.5819 12.8826 14.0273 12.6445 14.5123 12.548C14.9972 12.4516 15.4999 12.5011 15.9567 12.6903C16.4135 12.8795 16.804 13.2 17.0787 13.6111C17.3534 14.0222 17.5 14.5055 17.5 15C17.5 15.663 17.2366 16.2989 16.7678 16.7678C16.2989 17.2366 15.663 17.5 15 17.5ZM23.75 2.5H20C19.6685 2.5 19.3505 2.6317 19.1161 2.86612C18.8817 3.10054 18.75 3.41848 18.75 3.75C18.75 4.08152 18.8817 4.39946 19.1161 4.63388C19.3505 4.8683 19.6685 5 20 5H23.75C24.0815 5 24.3995 5.1317 24.6339 5.36612C24.8683 5.60054 25 5.91848 25 6.25V10C25 10.3315 25.1317 10.6495 25.3661 10.8839C25.6005 11.1183 25.9185 11.25 26.25 11.25C26.5815 11.25 26.8995 11.1183 27.1339 10.8839C27.3683 10.6495 27.5 10.3315 27.5 10V6.25C27.5 5.25544 27.1049 4.30161 26.4017 3.59835C25.6984 2.89509 24.7446 2.5 23.75 2.5ZM26.25 18.75C25.9185 18.75 25.6005 18.8817 25.3661 19.1161C25.1317 19.3505 25 19.6685 25 20V23.75C25 24.0815 24.8683 24.3995 24.6339 24.6339C24.3995 24.8683 24.0815 25 23.75 25H20C19.6685 25 19.3505 25.1317 19.1161 25.3661C18.8817 25.6005 18.75 25.9185 18.75 26.25C18.75 26.5815 18.8817 26.8995 19.1161 27.1339C19.3505 27.3683 19.6685 27.5 20 27.5H23.75C24.7446 27.5 25.6984 27.1049 26.4017 26.4017C27.1049 25.6984 27.5 24.7446 27.5 23.75V20C27.5 19.6685 27.3683 19.3505 27.1339 19.1161C26.8995 18.8817 26.5815 18.75 26.25 18.75Z" fill="white"/>
</svg>
