<?xml version="1.0" encoding="UTF-8"?>
<!DOCTYPE svg PUBLIC "-//W3C//DTD SVG 1.1//EN" "http://www.w3.org/Graphics/SVG/1.1/DTD/svg11.dtd">
<svg xmlns="http://www.w3.org/2000/svg" version="1.1" width="50px" height="50px" style="shape-rendering:geometricPrecision; text-rendering:geometricPrecision; image-rendering:optimizeQuality; fill-rule:evenodd; clip-rule:evenodd" xmlns:xlink="http://www.w3.org/1999/xlink">
<g><path style="opacity:0.722" fill="#fefffe" d="M 22.5,1.5 C 30.3873,1.55956 32.7207,5.39289 29.5,13C 32.3664,14.6957 33.6998,17.1957 33.5,20.5C 28.1667,20.5 22.8333,20.5 17.5,20.5C 17.3002,17.1957 18.6336,14.6957 21.5,13C 19.8405,8.86658 20.1738,5.03324 22.5,1.5 Z M 23.5,4.5 C 24.8221,4.33003 25.9887,4.66337 27,5.5C 26.8922,9.15678 26.8922,12.8235 27,16.5C 27.7504,17.1258 28.5838,17.6258 29.5,18C 26.8333,18.6667 24.1667,18.6667 21.5,18C 23.8516,17.4241 24.8516,15.9241 24.5,13.5C 23.8384,10.5318 23.505,7.5318 23.5,4.5 Z"/></g>
<g><path style="opacity:0.626" fill="#fefffe" d="M 14.5,8.5 C 15.8333,8.5 17.1667,8.5 18.5,8.5C 18.719,9.67504 18.3857,10.675 17.5,11.5C 11.4356,14.626 8.76896,19.626 9.5,26.5C 8.5,26.5 7.5,26.5 6.5,26.5C 6.26326,22.7267 6.76326,19.0601 8,15.5C 10.0329,12.9698 12.1996,10.6365 14.5,8.5 Z"/></g>
<g><path style="opacity:0.616" fill="#fefffe" d="M 32.5,8.5 C 40.9971,11.3681 44.6637,17.3681 43.5,26.5C 42.5,26.5 41.5,26.5 40.5,26.5C 41.0346,19.069 38.0346,13.569 31.5,10C 32.056,9.61742 32.3893,9.11742 32.5,8.5 Z"/></g>
<g><path style="opacity:0.722" fill="#fefffe" d="M 16.5,40.5 C 18.0808,42.1417 18.7475,44.1417 18.5,46.5C 13.1667,46.5 7.83333,46.5 2.5,46.5C 2.30024,43.1957 3.63357,40.6957 6.5,39C 4.85109,35.0276 5.18442,31.3609 7.5,28C 10.2569,27.218 12.7569,27.718 15,29.5C 15.7026,32.7125 15.5359,35.8792 14.5,39C 14.8361,40.0299 15.5028,40.5299 16.5,40.5 Z M 8.5,30.5 C 9.82207,30.33 10.9887,30.6634 12,31.5C 11.8922,35.1568 11.8922,38.8235 12,42.5C 12.7504,43.1258 13.5838,43.6258 14.5,44C 11.8333,44.6667 9.16667,44.6667 6.5,44C 8.85165,43.4241 9.85165,41.9241 9.5,39.5C 8.83838,36.5318 8.50505,33.5318 8.5,30.5 Z"/></g>
<g><path style="opacity:0.722" fill="#fefffe" d="M 33.5,40.5 C 34.4972,40.5299 35.1639,40.0299 35.5,39C 34.277,35.4965 34.277,31.9965 35.5,28.5C 44.3064,26.7795 46.9731,30.2795 43.5,39C 46.3664,40.6957 47.6998,43.1957 47.5,46.5C 42.1667,46.5 36.8333,46.5 31.5,46.5C 31.2525,44.1417 31.9192,42.1417 33.5,40.5 Z M 37.5,30.5 C 38.8221,30.33 39.9887,30.6634 41,31.5C 40.8922,35.1568 40.8922,38.8235 41,42.5C 41.7504,43.1258 42.5838,43.6258 43.5,44C 40.8333,44.6667 38.1667,44.6667 35.5,44C 37.8516,43.4241 38.8516,41.9241 38.5,39.5C 37.8384,36.5318 37.505,33.5318 37.5,30.5 Z"/></g>
<g><path style="opacity:0.65" fill="#fefffe" d="M 33.5,40.5 C 27.8333,41.8333 22.1667,41.8333 16.5,40.5C 16.5,39.5 16.5,38.5 16.5,37.5C 19.4284,37.8516 22.2617,38.5183 25,39.5C 27.7383,38.5183 30.5716,37.8516 33.5,37.5C 33.5,38.5 33.5,39.5 33.5,40.5 Z"/></g>
</svg>
