<svg width="27" height="21" viewBox="0 0 27 21" fill="none" xmlns="http://www.w3.org/2000/svg">
<path fill-rule="evenodd" clip-rule="evenodd" d="M0 3.375C0 2.47989 0.355579 1.62145 0.988515 0.988515C1.62145 0.355579 2.47989 0 3.375 0H23.625C24.0682 0 24.5071 0.087297 24.9166 0.256907C25.326 0.426516 25.6981 0.675117 26.0115 0.988515C26.3249 1.30191 26.5735 1.67397 26.7431 2.08344C26.9127 2.49292 27 2.93179 27 3.375V17.625C27 18.0682 26.9127 18.5071 26.7431 18.9166C26.5735 19.326 26.3249 19.6981 26.0115 20.0115C25.6981 20.3249 25.326 20.5735 24.9166 20.7431C24.5071 20.9127 24.0682 21 23.625 21H3.375C2.47989 21 1.62145 20.6444 0.988515 20.0115C0.355579 19.3785 0 18.5201 0 17.625V3.375ZM2.25 12.09V17.625C2.25 18.246 2.754 18.75 3.375 18.75H23.625C23.9234 18.75 24.2095 18.6315 24.4205 18.4205C24.6315 18.2095 24.75 17.9234 24.75 17.625V13.59L21.42 10.2615C21.2091 10.0508 20.9231 9.93249 20.625 9.93249C20.3269 9.93249 20.0409 10.0508 19.83 10.2615L16.965 13.125L17.67 13.83C17.7805 13.933 17.8692 14.0572 17.9307 14.1952C17.9922 14.3332 18.0252 14.4822 18.0279 14.6332C18.0306 14.7843 18.0028 14.9343 17.9462 15.0744C17.8896 15.2145 17.8054 15.3417 17.6986 15.4486C17.5917 15.5554 17.4645 15.6396 17.3244 15.6962C17.1843 15.7528 17.0343 15.7806 16.8832 15.7779C16.7322 15.7752 16.5832 15.7422 16.4452 15.6807C16.3072 15.6192 16.183 15.5305 16.08 15.42L8.295 7.6365C8.08406 7.42582 7.79813 7.30749 7.5 7.30749C7.20187 7.30749 6.91594 7.42582 6.705 7.6365L2.25 12.09ZM16.5 6C16.5 6.39782 16.342 6.77936 16.0607 7.06066C15.7794 7.34196 15.3978 7.5 15 7.5C14.6022 7.5 14.2206 7.34196 13.9393 7.06066C13.658 6.77936 13.5 6.39782 13.5 6C13.5 5.60218 13.658 5.22064 13.9393 4.93934C14.2206 4.65804 14.6022 4.5 15 4.5C15.3978 4.5 15.7794 4.65804 16.0607 4.93934C16.342 5.22064 16.5 5.60218 16.5 6Z" fill="#8B887E"/>
</svg>
