<?xml version="1.0" encoding="UTF-8"?>
<!DOCTYPE svg PUBLIC "-//W3C//DTD SVG 1.1//EN" "http://www.w3.org/Graphics/SVG/1.1/DTD/svg11.dtd">
<svg xmlns="http://www.w3.org/2000/svg" version="1.1" width="512px" height="512px" style="shape-rendering:geometricPrecision; text-rendering:geometricPrecision; image-rendering:optimizeQuality; fill-rule:evenodd; clip-rule:evenodd" xmlns:xlink="http://www.w3.org/1999/xlink">
<g><path style="opacity:0.934" fill="#fefffe" d="M 20.5,111.5 C 23.1873,111.336 25.854,111.503 28.5,112C 56.5,124 84.5,136 112.5,148C 116.021,151.916 116.354,156.082 113.5,160.5C 113.709,161.086 114.043,161.586 114.5,162C 129.858,164.872 145.191,167.872 160.5,171C 167.854,173.726 169.687,178.56 166,185.5C 162.067,187.478 157.9,187.978 153.5,187C 139.024,184.038 124.524,181.205 110,178.5C 108.893,178.585 107.893,178.919 107,179.5C 97.1667,207.667 87.3333,235.833 77.5,264C 84.0625,268.201 90.8958,272.034 98,275.5C 106.878,270.76 116.044,270.26 125.5,274C 136.853,280.676 143.353,290.509 145,303.5C 153.105,301.732 160.605,303.232 167.5,308C 171.702,311.867 175.535,316.033 179,320.5C 181.424,325.194 182.757,330.194 183,335.5C 190.373,334.259 197.207,335.759 203.5,340C 207,343.5 210.5,347 214,350.5C 217.046,355.639 218.88,361.139 219.5,367C 225.351,367.046 231.017,368.046 236.5,370C 241.634,374.133 246.468,378.633 251,383.5C 257.346,394.698 256.846,405.532 249.5,416C 257.208,422.153 264.708,421.986 272,415.5C 273.701,413.1 274.534,410.433 274.5,407.5C 273.853,402.731 272.519,398.231 270.5,394C 271.398,386.875 275.398,384.208 282.5,386C 291.864,390.682 301.198,395.349 310.5,400C 319.942,401.067 325.609,396.9 327.5,387.5C 326.974,384.728 326.141,382.062 325,379.5C 317.747,374.79 310.58,369.957 303.5,365C 297.745,358.863 298.412,353.53 305.5,349C 307.167,348.333 308.833,348.333 310.5,349C 326.581,358.04 342.915,366.54 359.5,374.5C 371.589,371.319 375.422,363.986 371,352.5C 360,344.833 349,337.167 338,329.5C 335.159,319.338 338.992,315.172 349.5,317C 368.377,326.605 387.377,335.939 406.5,345C 417.986,344.845 423.152,339.011 422,327.5C 420.939,324.438 419.106,321.938 416.5,320C 373.013,296.764 330.68,271.764 289.5,245C 286.326,239.72 286.992,235.053 291.5,231C 294.964,230.183 298.298,230.517 301.5,232C 337.92,255.56 375.253,277.727 413.5,298.5C 414.086,298.291 414.586,297.957 415,297.5C 415.881,291.133 416.881,284.8 418,278.5C 421.889,274.972 426.389,272.639 431.5,271.5C 421.171,240.015 410.338,208.681 399,177.5C 389.225,180.944 379.225,183.611 369,185.5C 363.989,185.504 360.156,183.337 357.5,179C 325.891,171.077 293.891,165.743 261.5,163C 238.073,175.791 215.573,189.958 194,205.5C 189.335,221.661 184.169,237.661 178.5,253.5C 178.608,254.442 178.941,255.275 179.5,256C 191.81,263.049 202.643,261.216 212,250.5C 216.164,242.505 219.497,234.171 222,225.5C 222.833,223.333 224.333,221.833 226.5,221C 239.902,218.483 253.236,215.649 266.5,212.5C 273.595,214.009 276.095,218.343 274,225.5C 272.833,226.667 271.667,227.833 270.5,229C 259.145,231.67 247.812,234.337 236.5,237C 233.43,248.811 227.763,259.144 219.5,268C 198.505,282.031 179.005,280.197 161,262.5C 160.077,260.966 159.577,259.299 159.5,257.5C 165.969,237.592 172.136,217.592 178,197.5C 178.785,195.714 179.951,194.214 181.5,193C 198.328,181.419 215.328,170.085 232.5,159C 240.041,154.73 247.707,150.73 255.5,147C 258.468,146.306 261.468,145.806 264.5,145.5C 297.19,148.871 329.523,154.371 361.5,162C 365.218,163.237 368.551,165.07 371.5,167.5C 379.139,165.953 386.473,163.619 393.5,160.5C 390.304,153.598 392.304,148.765 399.5,146C 427.913,134.862 456.246,123.529 484.5,112C 493.215,111.049 496.715,114.882 495,123.5C 494.535,124.931 493.701,126.097 492.5,127C 466.946,137.61 441.28,147.943 415.5,158C 413.777,158.523 412.444,159.523 411.5,161C 426.602,204.691 442.102,248.191 458,291.5C 467.926,287.136 478.093,283.469 488.5,280.5C 493.981,280.312 496.981,282.978 497.5,288.5C 497.2,291.579 495.867,294.079 493.5,296C 479.914,301.639 466.081,306.473 452,310.5C 449.019,310.919 446.686,309.919 445,307.5C 442.388,301.275 440.055,294.942 438,288.5C 436.887,287.289 435.72,287.289 434.5,288.5C 433.147,295.106 431.48,301.606 429.5,308C 442.378,323.076 442.712,338.41 430.5,354C 417.958,364.27 404.791,365.103 391,356.5C 390.43,377.231 379.93,388.898 359.5,391.5C 354.601,390.99 349.934,389.657 345.5,387.5C 342.169,408.667 329.836,418.5 308.5,417C 302.836,415.669 297.503,413.502 292.5,410.5C 285.889,432.975 271.222,441.141 248.5,435C 244.423,433.213 240.59,431.046 237,428.5C 225.809,438.002 213.975,438.835 201.5,431C 198,427.5 194.5,424 191,420.5C 188.627,416.418 186.794,412.084 185.5,407.5C 175.763,410.652 166.763,409.152 158.5,403C 151.209,397.05 146.376,389.55 144,380.5C 134.968,383.496 126.468,382.329 118.5,377C 113.254,372.425 108.754,367.258 105,361.5C 102.015,354.679 101.849,347.846 104.5,341C 92.0659,337.572 82.8992,330.072 77,318.5C 73.1014,306.641 75.6014,296.474 84.5,288C 80.4431,285.134 76.1097,283.134 71.5,282C 68.1417,290.406 64.975,298.906 62,307.5C 60.1473,309.592 57.8139,310.592 55,310.5C 42.031,307.014 29.3644,302.68 17,297.5C 12.9283,290.046 14.9283,285.046 23,282.5C 32.1027,285.48 41.2694,288.146 50.5,290.5C 65.5,246.5 80.5,202.5 95.5,158.5C 70.0813,148.302 44.748,137.802 19.5,127C 14.1247,121.402 14.458,116.236 20.5,111.5 Z M 112.5,287.5 C 120.076,290.242 125.076,295.409 127.5,303C 127.458,304.967 126.958,306.801 126,308.5C 121.833,312.667 117.667,316.833 113.5,321C 110.033,323.786 106.366,324.12 102.5,322C 99.6667,319.167 96.8333,316.333 94,313.5C 92,309.833 92,306.167 94,302.5C 98.1667,298.333 102.333,294.167 106.5,290C 108.611,289.155 110.611,288.322 112.5,287.5 Z M 147.5,319.5 C 155.866,319.684 161.699,323.684 165,331.5C 166.02,335.71 165.02,339.377 162,342.5C 154.53,348.968 147.364,355.802 140.5,363C 136.619,365.881 132.619,365.881 128.5,363C 124.908,360.079 122.075,356.579 120,352.5C 119.257,349.217 119.924,346.217 122,343.5C 130.094,334.901 138.594,326.901 147.5,319.5 Z M 184.5,351.5 C 191.953,352.102 197.453,355.768 201,362.5C 201.667,365.167 201.667,367.833 201,370.5C 195.199,377.302 189.032,383.802 182.5,390C 180.541,390.931 178.541,391.764 176.5,392.5C 171.036,390.546 166.536,387.212 163,382.5C 161.543,379.634 161.21,376.634 162,373.5C 168.732,365.266 176.232,357.933 184.5,351.5 Z M 221.5,383.5 C 230.166,385.331 235.833,390.497 238.5,399C 238.091,401.321 237.257,403.487 236,405.5C 231.111,411.738 225.111,416.405 218,419.5C 210.167,417 205,411.833 202.5,404C 203,402.5 203.5,401 204,399.5C 209.454,393.537 215.287,388.204 221.5,383.5 Z"/></g>
</svg>
