<svg width="25" height="25" viewBox="0 0 25 25" fill="none" xmlns="http://www.w3.org/2000/svg">
<path fill-rule="evenodd" clip-rule="evenodd" d="M17.1877 21.0938H7.81271C7.19111 21.0938 6.59497 20.8468 6.15543 20.4073C5.71589 19.9677 5.46896 19.3716 5.46896 18.75V6.25C5.46896 5.6284 5.71589 5.03226 6.15543 4.59272C6.59497 4.15318 7.19111 3.90625 7.81271 3.90625H10.9377V7.8125C10.9377 9.0557 11.4316 10.248 12.3107 11.1271C13.1897 12.0061 14.382 12.5 15.6252 12.5H19.5315V18.75C19.5315 19.3716 19.2845 19.9677 18.845 20.4073C18.4055 20.8468 17.8093 21.0938 17.1877 21.0938ZM19.2237 10.1562C19.1203 9.97453 18.9931 9.80743 18.8455 9.65938L13.7783 4.59219C13.6303 4.44455 13.4632 4.31738 13.2815 4.21406V7.8125C13.2815 8.4341 13.5284 9.03024 13.9679 9.46978C14.4075 9.90932 15.0036 10.1562 15.6252 10.1562H19.2237ZM20.5018 8.00156C20.9373 8.43692 21.2827 8.95382 21.5184 9.52273C21.754 10.0916 21.8753 10.7014 21.8752 11.3172V18.75C21.8752 19.9932 21.3814 21.1855 20.5023 22.0646C19.6232 22.9436 18.4309 23.4375 17.1877 23.4375H7.81271C6.56951 23.4375 5.37723 22.9436 4.49815 22.0646C3.61907 21.1855 3.12521 19.9932 3.12521 18.75V6.25C3.12521 5.0068 3.61907 3.81451 4.49815 2.93544C5.37723 2.05636 6.56951 1.5625 7.81271 1.5625H12.1205C12.7363 1.56243 13.3461 1.68368 13.915 1.91934C14.4839 2.155 15.0008 2.50045 15.4362 2.93594L20.5002 8L20.5018 8.00156Z" fill="white"/>
</svg>
