<svg width="25" height="25" viewBox="0 0 25 25" fill="none" xmlns="http://www.w3.org/2000/svg">
<path d="M21.8752 12.5V7.29167H5.20855C4.65601 7.29167 4.12611 7.07217 3.73541 6.68147C3.34471 6.29077 3.12521 5.76087 3.12521 5.20833C3.12521 4.6558 3.34471 4.12589 3.73541 3.73519C4.12611 3.34449 4.65601 3.125 5.20855 3.125H19.7919V7.29167" stroke="#F6BE83" stroke-width="2" stroke-linecap="round" stroke-linejoin="round"/>
<path d="M3.12521 5.20837V19.7917C3.12521 20.3442 3.34471 20.8741 3.73541 21.2648C4.12611 21.6555 4.65601 21.875 5.20855 21.875H21.8752V16.6667" stroke="#F6BE83" stroke-width="2" stroke-linecap="round" stroke-linejoin="round"/>
<path d="M18.7502 12.5C18.1977 12.5 17.6678 12.7195 17.2771 13.1102C16.8864 13.5009 16.6669 14.0308 16.6669 14.5833C16.6669 15.1359 16.8864 15.6658 17.2771 16.0565C17.6678 16.4472 18.1977 16.6667 18.7502 16.6667H22.9169V12.5H18.7502Z" stroke="#F6BE83" stroke-width="2" stroke-linecap="round" stroke-linejoin="round"/>
</svg>
