<?xml version="1.0" encoding="UTF-8"?>
<!DOCTYPE svg PUBLIC "-//W3C//DTD SVG 1.1//EN" "http://www.w3.org/Graphics/SVG/1.1/DTD/svg11.dtd">
<svg xmlns="http://www.w3.org/2000/svg" version="1.1" width="512px" height="512px" style="shape-rendering:geometricPrecision; text-rendering:geometricPrecision; image-rendering:optimizeQuality; fill-rule:evenodd; clip-rule:evenodd" xmlns:xlink="http://www.w3.org/1999/xlink">
<g><path style="opacity:0.973" fill="#b24049" d="M 151.5,-0.5 C 202.167,-0.5 252.833,-0.5 303.5,-0.5C 307.785,1.62186 310.952,4.9552 313,9.5C 313.667,22.8333 313.667,36.1667 313,49.5C 307.424,60.271 299.258,62.771 288.5,57C 286.57,54.7417 285.07,52.2417 284,49.5C 283.5,42.8417 283.334,36.175 283.5,29.5C 246.5,29.5 209.5,29.5 172.5,29.5C 172.666,36.175 172.5,42.8417 172,49.5C 167.983,58.7588 161.149,61.9255 151.5,59C 147.333,57.5 144.5,54.6667 143,50.5C 142.333,36.8333 142.333,23.1667 143,9.5C 144.261,4.74518 147.095,1.41184 151.5,-0.5 Z"/></g>
<g><path style="opacity:0.972" fill="#b24049" d="M 380.5,511.5 C 370.833,511.5 361.167,511.5 351.5,511.5C 328.925,508.047 308.925,498.881 291.5,484C 228.167,483.667 164.833,483.333 101.5,483C 93.5948,480.418 89.4282,474.918 89,466.5C 80.3492,376.174 71.8492,285.841 63.5,195.5C 56.4921,195.666 49.4921,195.5 42.5,195C 36.8079,192.794 33.6413,188.627 33,182.5C 32.3333,154.833 32.3333,127.167 33,99.5C 33.934,92.5636 37.7673,88.0636 44.5,86C 166.833,85.3333 289.167,85.3333 411.5,86C 416.573,87.4056 420.073,90.5723 422,95.5C 422.667,125.833 422.667,156.167 422,186.5C 420.5,190.667 417.667,193.5 413.5,195C 306.832,195.167 200.165,195.667 93.5,196.5C 101.953,281.812 110.286,367.146 118.5,452.5C 167.838,452.833 217.171,452.5 266.5,451.5C 246.597,407.984 250.764,366.984 279,328.5C 283.701,324.134 288.034,319.467 292,314.5C 294,294.5 296,274.5 298,254.5C 301.158,244.334 307.991,240.5 318.5,243C 324.661,245.804 327.994,250.637 328.5,257.5C 326.695,270.199 325.695,282.865 325.5,295.5C 334.516,291.913 343.85,289.579 353.5,288.5C 354.071,275.377 355.571,262.377 358,249.5C 363.702,242.392 370.869,240.558 379.5,244C 382.433,246.264 384.6,249.098 386,252.5C 385.963,264.877 385.129,277.21 383.5,289.5C 427.832,297.658 457.665,322.992 473,365.5C 485.15,411.408 474.317,450.908 440.5,484C 423.075,498.881 403.075,508.047 380.5,511.5 Z M 354.5,318.5 C 396.882,315.768 426.382,333.768 443,372.5C 454.521,415.292 441.688,448.458 404.5,472C 367.872,488.59 335.039,483.09 306,455.5C 281.589,425.971 277.922,393.971 295,359.5C 308.726,336.937 328.559,323.27 354.5,318.5 Z"/></g>
<g><path style="opacity:1" fill="#f3b1af" d="M 392.5,115.5 C 392.5,132.167 392.5,148.833 392.5,165.5C 282.5,165.5 172.5,165.5 62.5,165.5C 62.5,148.833 62.5,132.167 62.5,115.5C 172.5,115.5 282.5,115.5 392.5,115.5 Z"/></g>
<g><path style="opacity:1" fill="#d67f82" d="M 392.5,115.5 C 393.497,132.325 393.83,149.325 393.5,166.5C 282.999,166.833 172.665,166.499 62.5,165.5C 172.5,165.5 282.5,165.5 392.5,165.5C 392.5,148.833 392.5,132.167 392.5,115.5 Z"/></g>
<g><path style="opacity:0.946" fill="#b24049" d="M 223.5,240.5 C 234.405,239.26 240.905,243.926 243,254.5C 243.667,306.5 243.667,358.5 243,410.5C 238.873,424.308 230.373,427.808 217.5,421C 215.348,418.531 213.848,415.698 213,412.5C 212.333,359.167 212.333,305.833 213,252.5C 214.28,246.396 217.78,242.396 223.5,240.5 Z"/></g>
<g><path style="opacity:0.96" fill="#b24049" d="M 137.5,242.5 C 147.125,240.416 153.958,243.749 158,252.5C 163.135,304.682 168.302,356.849 173.5,409C 170.22,423.307 161.886,427.474 148.5,421.5C 145.65,419.135 143.816,416.135 143,412.5C 138.035,361.512 133.201,310.512 128.5,259.5C 127.712,251.669 130.712,246.002 137.5,242.5 Z"/></g>
<g><path style="opacity:0.963" fill="#b24049" d="M 322.5,347.5 C 327.777,346.931 332.777,347.765 337.5,350C 347,359.5 356.5,369 366,378.5C 375.833,368.667 385.667,358.833 395.5,349C 408.831,344.321 416.498,348.821 418.5,362.5C 418.705,365.795 417.872,368.795 416,371.5C 406.5,381 397,390.5 387.5,400C 398.048,410.046 408.048,420.546 417.5,431.5C 420.534,443.446 416.034,450.446 404,452.5C 400.617,452.483 397.45,451.65 394.5,450C 385,440.5 375.5,431 366,421.5C 356.5,431 347,440.5 337.5,450C 329.387,454.213 322.221,453.046 316,446.5C 312.667,440.5 312.667,434.5 316,428.5C 325.5,419 335,409.5 344.5,400C 333.601,389.77 323.434,378.937 314,367.5C 311.92,358.534 314.753,351.867 322.5,347.5 Z"/></g>
</svg>
