<svg width="15" height="13" viewBox="0 0 15 13" fill="none" xmlns="http://www.w3.org/2000/svg">
<path d="M4.375 8.375V6.5M4.375 6.5V4.625H6.25V6.5H4.375ZM10 4.625H8.125V8.375H10M13.75 4.625H11.875V8.375H13.75V6.875M2.5 4.625V7.25C2.5 8.375 1.25 8.375 1.25 8.375M8.125 6.5H9.375" stroke="#8B887E" stroke-linecap="round" stroke-linejoin="round"/>
<path d="M2.5 2.75V1.25C2.5 1.15054 2.53951 1.05516 2.60983 0.984835C2.68016 0.914509 2.77554 0.875 2.875 0.875H12.125C12.2245 0.875 12.3198 0.914509 12.3902 0.984835C12.4605 1.05516 12.5 1.15054 12.5 1.25V2.75M2.5 10.25V11.75C2.5 11.8495 2.53951 11.9448 2.60983 12.0152C2.68016 12.0855 2.77554 12.125 2.875 12.125H12.125C12.2245 12.125 12.3198 12.0855 12.3902 12.0152C12.4605 11.9448 12.5 11.8495 12.5 11.75V10.25" stroke="#8B887E" stroke-linecap="round"/>
</svg>
