<svg width="60" height="60" viewBox="0 0 60 60" fill="none" xmlns="http://www.w3.org/2000/svg">
<path d="M27.4353 0.0196877C25.1103 0.255009 22.1923 0.876255 20.3192 1.52574C13.6078 3.85071 7.89424 8.46301 4.27029 14.4684C-0.897357 23.0435 -1.40565 33.6424 2.91484 42.5846C5.09862 47.0839 8.07308 50.7172 12.0076 53.6729C15.9705 56.6473 20.658 58.6052 25.6469 59.3676C27.52 59.65 31.2098 59.7159 33.2242 59.5088C44.3408 58.3322 53.7818 51.2067 57.9423 40.8432C58.8459 38.5841 59.4766 36.1368 59.8343 33.4917C60.0602 31.8257 60.0508 27.6934 59.8343 25.9991C59.5237 23.693 59.0436 21.5845 58.4318 19.8902C58.2435 19.3631 58.2247 19.3537 58.0741 19.5137C57.98 19.6078 52.417 25.6038 45.7056 32.8423C32.3488 47.2345 33.0077 46.5756 31.4075 47.131C30.3344 47.5075 29.5249 47.5545 28.4142 47.3286C26.8893 47.018 25.7222 46.3309 24.9503 45.3143C24.3573 44.5236 14.6809 28.9642 14.3985 28.3429C13.749 26.931 13.6549 25.1426 14.1538 23.8342C14.7374 22.2999 15.8952 21.208 17.6459 20.5397C18.3331 20.2761 18.4931 20.2573 19.5756 20.2573C21.2887 20.2479 21.3452 20.2761 25.4021 22.94L28.819 25.199L29.1202 24.9731C31.2757 23.3165 50.5062 8.20886 50.525 8.15238C50.5721 8.03942 49.0754 6.74987 47.7482 5.76152C44.4443 3.30477 40.4815 1.4975 36.4716 0.622108C34.2784 0.151466 33.2054 0.0385132 30.4474 0.010273C28.9978 -0.00855255 27.6424 0.000862122 27.4353 0.0196877Z" fill="black"/>
<path d="M57.2269 10.7129C50.4214 16.0124 29.3931 32.193 29.2708 32.2213C29.1672 32.2495 27.6235 31.2706 25.1573 29.6328C22.983 28.1832 21.1192 26.9783 21.0157 26.9407C20.7427 26.856 20.5168 26.9689 20.5168 27.1854C20.5168 27.3643 29.299 41.3612 29.4967 41.4929C29.5531 41.5306 29.6755 41.5682 29.7602 41.5682C29.9579 41.5682 55.8997 13.5462 58.6106 10.4023C58.78 10.2047 58.6671 9.94109 58.4129 9.94109C58.3094 9.94109 57.7728 10.2894 57.2269 10.7129Z" fill="black"/>
</svg>
