<svg width="230" height="60" viewBox="0 0 230 60" fill="none" xmlns="http://www.w3.org/2000/svg">
<path d="M28.1353 0.0197945C25.8103 0.256577 22.8923 0.88168 21.0192 1.53519C14.3078 3.8746 8.59422 8.51551 4.97027 14.5582C-0.197375 23.1865 -0.705668 33.8511 3.61483 42.8488C5.7986 47.3761 8.77306 51.032 12.7076 54.006C16.6704 56.9989 21.358 58.9689 26.3468 59.7361C28.22 60.0202 31.9098 60.0865 33.9242 59.8781C45.0407 58.6942 54.4818 51.5245 58.6423 41.0966C59.5459 38.8235 60.1766 36.361 60.5343 33.6996C60.7602 32.0232 60.7508 27.8653 60.5343 26.1605C60.2237 23.84 59.7436 21.7184 59.1318 20.0136C58.9435 19.4832 58.9247 19.4738 58.7741 19.6348C58.6799 19.7295 53.117 25.7627 46.4056 33.0461C33.0488 47.5276 33.7077 46.8646 32.1075 47.4234C31.0344 47.8023 30.2249 47.8496 29.1142 47.6223C27.5893 47.3098 26.4221 46.6184 25.6503 45.5955C25.0573 44.7999 15.3809 29.1439 15.0985 28.5188C14.449 27.0981 14.3549 25.2986 14.8538 23.9821C15.4374 22.4383 16.5951 21.3396 18.3459 20.6671C19.0331 20.4019 19.1931 20.383 20.2756 20.383C21.9887 20.3735 22.0452 20.4019 26.1021 23.0823L29.519 25.3554L29.8202 25.1281C31.9757 23.4612 51.2062 8.25979 51.225 8.20296C51.272 8.08931 49.7754 6.79174 48.4482 5.79726C45.1443 3.32526 41.1815 1.50678 37.1716 0.625954C34.9784 0.152393 33.9053 0.0387383 31.1474 0.0103226C29.6978 -0.00862122 28.3424 0.000850677 28.1353 0.0197945Z" fill="#F36E26"/>
<path d="M57.9269 10.7794C51.1214 16.1117 30.0931 32.3928 29.9707 32.4212C29.8672 32.4496 28.3235 31.4646 25.8573 29.8166C23.683 28.358 21.8192 27.1457 21.7157 27.1078C21.4427 27.0226 21.2168 27.1363 21.2168 27.3541C21.2168 27.534 29.999 41.6178 30.1966 41.7504C30.2531 41.7883 30.3755 41.8262 30.4602 41.8262C30.6579 41.8262 56.5997 13.6302 59.3106 10.4668C59.48 10.2679 59.367 10.0027 59.1129 10.0027C59.0094 10.0027 58.4728 10.3532 57.9269 10.7794Z" fill="#F36E26"/>
<path d="M88.24 41V18.6H94.576V41H88.24ZM97.8997 41V37.416L107.628 26.216L108.652 28.168H98.1238V23.656H113.58V27.208L103.82 38.44L102.796 36.456H113.9V41H97.8997ZM116.577 41V23.656H122.657V41H116.577ZM119.617 21.736C118.508 21.736 117.612 21.4267 116.929 20.808C116.246 20.1893 115.905 19.4213 115.905 18.504C115.905 17.5867 116.246 16.8187 116.929 16.2C117.612 15.5813 118.508 15.272 119.617 15.272C120.726 15.272 121.622 15.5707 122.305 16.168C122.988 16.744 123.329 17.4907 123.329 18.408C123.329 19.368 122.988 20.168 122.305 20.808C121.644 21.4267 120.748 21.736 119.617 21.736ZM126.896 41V18.6H132.112L141.392 33.832H138.64L147.664 18.6H152.88L152.944 41H147.12L147.056 27.464H148.048L141.296 38.792H138.48L131.536 27.464H132.752V41H126.896ZM165.844 41.288C163.945 41.288 162.26 40.904 160.788 40.136C159.316 39.368 158.153 38.312 157.299 36.968C156.468 35.6027 156.052 34.0453 156.052 32.296C156.052 30.5467 156.468 29 157.299 27.656C158.153 26.312 159.316 25.2667 160.788 24.52C162.26 23.752 163.945 23.368 165.844 23.368C167.742 23.368 169.428 23.752 170.9 24.52C172.393 25.2667 173.556 26.312 174.388 27.656C175.22 29 175.636 30.5467 175.636 32.296C175.636 34.0453 175.22 35.6027 174.388 36.968C173.556 38.312 172.393 39.368 170.9 40.136C169.428 40.904 167.742 41.288 165.844 41.288ZM165.844 36.456C166.548 36.456 167.166 36.296 167.7 35.976C168.254 35.656 168.692 35.1867 169.012 34.568C169.332 33.928 169.492 33.1707 169.492 32.296C169.492 31.4213 169.332 30.6853 169.012 30.088C168.692 29.4693 168.254 29 167.7 28.68C167.166 28.36 166.548 28.2 165.844 28.2C165.161 28.2 164.542 28.36 163.988 28.68C163.454 29 163.017 29.4693 162.676 30.088C162.356 30.6853 162.196 31.4213 162.196 32.296C162.196 33.1707 162.356 33.928 162.676 34.568C163.017 35.1867 163.454 35.656 163.988 35.976C164.542 36.296 165.161 36.456 165.844 36.456ZM189.748 23.368C191.092 23.368 192.308 23.6453 193.396 24.2C194.484 24.7333 195.337 25.5653 195.956 26.696C196.596 27.8267 196.916 29.288 196.916 31.08V41H190.836V32.072C190.836 30.8347 190.58 29.9387 190.068 29.384C189.577 28.808 188.884 28.52 187.988 28.52C187.348 28.52 186.761 28.6693 186.228 28.968C185.695 29.2453 185.279 29.6827 184.98 30.28C184.681 30.8773 184.532 31.656 184.532 32.616V41H178.452V23.656H184.244V28.584L183.124 27.144C183.785 25.8853 184.692 24.9467 185.844 24.328C186.996 23.688 188.297 23.368 189.748 23.368ZM200.733 41V23.656H206.813V41H200.733ZM203.773 21.736C202.664 21.736 201.768 21.4267 201.085 20.808C200.403 20.1893 200.061 19.4213 200.061 18.504C200.061 17.5867 200.403 16.8187 201.085 16.2C201.768 15.5813 202.664 15.272 203.773 15.272C204.883 15.272 205.779 15.5707 206.461 16.168C207.144 16.744 207.485 17.4907 207.485 18.408C207.485 19.368 207.144 20.168 206.461 20.808C205.8 21.4267 204.904 21.736 203.773 21.736ZM219.853 41.288C217.805 41.288 216.013 40.904 214.477 40.136C212.962 39.3467 211.778 38.28 210.924 36.936C210.093 35.5707 209.677 34.024 209.677 32.296C209.677 30.568 210.082 29.032 210.893 27.688C211.725 26.3227 212.866 25.2667 214.317 24.52C215.767 23.752 217.399 23.368 219.213 23.368C220.919 23.368 222.477 23.72 223.885 24.424C225.293 25.1067 226.413 26.12 227.245 27.464C228.077 28.808 228.493 30.44 228.493 32.36C228.493 32.5733 228.482 32.8187 228.461 33.096C228.439 33.3733 228.418 33.6293 228.397 33.864H214.669V30.664H225.165L222.861 31.56C222.882 30.7707 222.733 30.088 222.413 29.512C222.114 28.936 221.687 28.488 221.133 28.168C220.599 27.848 219.97 27.688 219.245 27.688C218.519 27.688 217.879 27.848 217.325 28.168C216.791 28.488 216.375 28.9467 216.077 29.544C215.778 30.12 215.629 30.8027 215.629 31.592V32.52C215.629 33.3733 215.799 34.1093 216.141 34.728C216.503 35.3467 217.015 35.8267 217.677 36.168C218.338 36.488 219.127 36.648 220.045 36.648C220.898 36.648 221.623 36.5307 222.221 36.296C222.839 36.04 223.447 35.656 224.045 35.144L227.245 38.472C226.413 39.3893 225.389 40.0933 224.173 40.584C222.957 41.0533 221.517 41.288 219.853 41.288Z" fill="#F36E26"/>
</svg>
