<svg width="322" height="90" viewBox="0 0 322 90" fill="none" xmlns="http://www.w3.org/2000/svg">
<path d="M41.1526 0.0296936C37.6652 0.384865 33.2882 1.32252 30.4785 2.3028C20.4114 5.8119 11.841 12.7733 6.40512 21.8373C-1.34636 34.7797 -2.1088 50.7767 4.37195 64.2732C7.64761 71.0641 12.1093 76.548 18.0112 81.009C23.9554 85.4983 30.9868 88.4534 38.47 89.6041C41.2797 90.0303 46.8144 90.1298 49.836 89.8172C66.5108 88.0414 80.6724 77.2867 86.9131 61.645C88.2686 58.2353 89.2146 54.5415 89.7511 50.5494C90.09 48.0348 90.0759 41.7979 89.7511 39.2407C89.2852 35.76 88.5651 32.5777 87.6474 30.0204C87.365 29.2248 87.3367 29.2106 87.1108 29.4522C86.9696 29.5942 78.6251 38.644 68.5581 49.5691C48.5229 71.2914 49.5112 70.297 47.111 71.1352C45.5014 71.7034 44.2871 71.7745 42.621 71.4335C40.3337 70.9647 38.5829 69.9276 37.4251 68.3932C36.5356 67.1999 22.021 43.7159 21.5974 42.7782C20.6232 40.6472 20.482 37.9479 21.2303 35.9731C22.1057 33.6574 23.8424 32.0094 26.4686 31.0007C27.4993 30.6029 27.7393 30.5745 29.363 30.5745C31.9327 30.5603 32.0175 30.6029 38.1029 34.6235L43.2282 38.0331L43.68 37.6922C46.9133 35.1917 75.7589 12.3897 75.7872 12.3044C75.8578 12.134 73.6128 10.1876 71.622 8.69589C66.6661 4.98789 60.7219 2.26017 54.7071 0.938934C51.4173 0.228584 49.8077 0.0581055 45.6708 0.0154877C43.4964 -0.0129318 41.4632 0.00127411 41.1526 0.0296936Z" fill="white"/>
<path d="M85.8405 16.1687C75.6323 24.1672 44.0899 48.5888 43.9063 48.6315C43.751 48.6741 41.4354 47.1966 37.7362 44.7246C34.4746 42.5367 31.679 40.7182 31.5237 40.6614C31.1143 40.5335 30.7754 40.704 30.7754 41.0308C30.7754 41.3007 43.9487 62.4263 44.2452 62.6252C44.3299 62.6821 44.5134 62.7389 44.6405 62.7389C44.937 62.7389 83.8497 20.445 87.916 15.6999C88.1702 15.4015 88.0008 15.0037 87.6195 15.0037C87.4642 15.0037 86.6594 15.5294 85.8405 16.1687Z" fill="white"/>
<path d="M114.512 62V28.4H120.752V62H114.512ZM127.152 62V58.208L142.944 39.104L144.048 41.168H127.44V36.368H148.848V40.16L133.056 59.264L131.856 57.2H149.28V62H127.152ZM154.811 62V36.368H160.811V62H154.811ZM157.835 32.144C156.715 32.144 155.787 31.792 155.051 31.088C154.347 30.384 153.995 29.536 153.995 28.544C153.995 27.52 154.347 26.672 155.051 26C155.787 25.296 156.715 24.944 157.835 24.944C158.955 24.944 159.867 25.28 160.571 25.952C161.307 26.592 161.675 27.408 161.675 28.4C161.675 29.456 161.323 30.352 160.619 31.088C159.915 31.792 158.987 32.144 157.835 32.144ZM169.262 62V28.4H174.398L189.086 52.928H186.398L200.846 28.4H205.982L206.03 62H200.126L200.078 37.664H201.326L189.038 58.16H186.254L173.774 37.664H175.214V62H169.262ZM226.05 62.336C223.426 62.336 221.09 61.776 219.042 60.656C216.994 59.504 215.378 57.936 214.194 55.952C213.01 53.968 212.418 51.712 212.418 49.184C212.418 46.624 213.01 44.368 214.194 42.416C215.378 40.432 216.994 38.88 219.042 37.76C221.09 36.64 223.426 36.08 226.05 36.08C228.706 36.08 231.058 36.64 233.106 37.76C235.186 38.88 236.802 40.416 237.954 42.368C239.138 44.32 239.73 46.592 239.73 49.184C239.73 51.712 239.138 53.968 237.954 55.952C236.802 57.936 235.186 59.504 233.106 60.656C231.058 61.776 228.706 62.336 226.05 62.336ZM226.05 57.2C227.522 57.2 228.834 56.88 229.986 56.24C231.138 55.6 232.034 54.672 232.674 53.456C233.346 52.24 233.682 50.816 233.682 49.184C233.682 47.52 233.346 46.096 232.674 44.912C232.034 43.696 231.138 42.768 229.986 42.128C228.834 41.488 227.538 41.168 226.098 41.168C224.626 41.168 223.314 41.488 222.162 42.128C221.042 42.768 220.146 43.696 219.474 44.912C218.802 46.096 218.466 47.52 218.466 49.184C218.466 50.816 218.802 52.24 219.474 53.456C220.146 54.672 221.042 55.6 222.162 56.24C223.314 56.88 224.61 57.2 226.05 57.2ZM260.011 36.08C262.059 36.08 263.883 36.48 265.483 37.28C267.115 38.08 268.395 39.312 269.323 40.976C270.251 42.608 270.715 44.72 270.715 47.312V62H264.715V48.08C264.715 45.808 264.171 44.112 263.083 42.992C262.027 41.872 260.539 41.312 258.619 41.312C257.211 41.312 255.963 41.6 254.875 42.176C253.787 42.752 252.939 43.616 252.331 44.768C251.755 45.888 251.467 47.312 251.467 49.04V62H245.467V36.368H251.179V43.28L250.171 41.168C251.067 39.536 252.363 38.288 254.059 37.424C255.787 36.528 257.771 36.08 260.011 36.08ZM278.327 62V36.368H284.327V62H278.327ZM281.351 32.144C280.231 32.144 279.303 31.792 278.567 31.088C277.863 30.384 277.511 29.536 277.511 28.544C277.511 27.52 277.863 26.672 278.567 26C279.303 25.296 280.231 24.944 281.351 24.944C282.471 24.944 283.383 25.28 284.087 25.952C284.823 26.592 285.191 27.408 285.191 28.4C285.191 29.456 284.839 30.352 284.135 31.088C283.431 31.792 282.503 32.144 281.351 32.144ZM304.25 62.336C301.402 62.336 298.906 61.776 296.762 60.656C294.65 59.504 293.002 57.936 291.818 55.952C290.666 53.968 290.09 51.712 290.09 49.184C290.09 46.624 290.65 44.368 291.77 42.416C292.922 40.432 294.49 38.88 296.474 37.76C298.49 36.64 300.778 36.08 303.338 36.08C305.834 36.08 308.058 36.624 310.01 37.712C311.962 38.8 313.498 40.336 314.618 42.32C315.738 44.304 316.298 46.64 316.298 49.328C316.298 49.584 316.282 49.872 316.25 50.192C316.25 50.512 316.234 50.816 316.202 51.104H294.842V47.12H313.034L310.682 48.368C310.714 46.896 310.41 45.6 309.77 44.48C309.13 43.36 308.25 42.48 307.13 41.84C306.042 41.2 304.778 40.88 303.338 40.88C301.866 40.88 300.57 41.2 299.45 41.84C298.362 42.48 297.498 43.376 296.858 44.528C296.25 45.648 295.946 46.976 295.946 48.512V49.472C295.946 51.008 296.298 52.368 297.002 53.552C297.706 54.736 298.698 55.648 299.978 56.288C301.258 56.928 302.73 57.248 304.394 57.248C305.834 57.248 307.13 57.024 308.282 56.576C309.434 56.128 310.458 55.424 311.354 54.464L314.57 58.16C313.418 59.504 311.962 60.544 310.202 61.28C308.474 61.984 306.49 62.336 304.25 62.336Z" fill="white"/>
</svg>
