<svg width="21" height="23" viewBox="0 0 21 23" fill="none" xmlns="http://www.w3.org/2000/svg">
<g filter="url(#filter0_d_76_1104)">
<path d="M5.5 6.5V6H5V6.5H5.5ZM9.5 6.5V6H9V6.5H9.5ZM9.5 10.5H9V11H9.5V10.5ZM16.5 3.5H17V3.293L16.854 3.146L16.5 3.5ZM13.5 0.5L13.854 0.146L13.707 0H13.5V0.5ZM5.5 7H6.5V6H5.5V7ZM6 11V8.5H5V11H6ZM6 8.5V6.5H5V8.5H6ZM6.5 8H5.5V9H6.5V8ZM7 7.5C7 7.63261 6.94732 7.75979 6.85355 7.85355C6.75979 7.94732 6.63261 8 6.5 8V9C6.89783 9 7.27936 8.84196 7.56066 8.56066C7.84197 8.27936 8 7.89782 8 7.5H7ZM6.5 7C6.63261 7 6.75979 7.05268 6.85355 7.14645C6.94732 7.24021 7 7.36739 7 7.5H8C8 7.10218 7.84197 6.72064 7.56066 6.43934C7.27936 6.15804 6.89783 6 6.5 6V7ZM9 6.5V10.5H10V6.5H9ZM9.5 11H10.5V10H9.5V11ZM12 9.5V7.5H11V9.5H12ZM10.5 6H9.5V7H10.5V6ZM12 7.5C12 7.10218 11.842 6.72064 11.5607 6.43934C11.2794 6.15804 10.8978 6 10.5 6V7C10.6326 7 10.7598 7.05268 10.8536 7.14645C10.9473 7.24021 11 7.36739 11 7.5H12ZM10.5 11C10.8978 11 11.2794 10.842 11.5607 10.5607C11.842 10.2794 12 9.89782 12 9.5H11C11 9.63261 10.9473 9.75979 10.8536 9.85355C10.7598 9.94732 10.6326 10 10.5 10V11ZM13 6V11H14V6H13ZM13.5 7H16V6H13.5V7ZM13.5 9H15V8H13.5V9ZM5 5V1.5H4V5H5ZM16 3.5V5H17V3.5H16ZM5.5 1H13.5V0H5.5V1ZM13.146 0.854L16.146 3.854L16.854 3.146L13.854 0.146L13.146 0.854ZM5 1.5C5 1.36739 5.05268 1.24021 5.14645 1.14645C5.24022 1.05268 5.36739 1 5.5 1V0C5.10218 0 4.72064 0.158035 4.43934 0.43934C4.15804 0.720644 4 1.10218 4 1.5H5ZM4 12V13.5H5V12H4ZM5.5 15H15.5V14H5.5V15ZM17 13.5V12H16V13.5H17ZM15.5 15C15.8978 15 16.2794 14.842 16.5607 14.5607C16.842 14.2794 17 13.8978 17 13.5H16C16 13.6326 15.9473 13.7598 15.8536 13.8536C15.7598 13.9473 15.6326 14 15.5 14V15ZM4 13.5C4 13.8978 4.15804 14.2794 4.43934 14.5607C4.72064 14.842 5.10218 15 5.5 15V14C5.36739 14 5.24022 13.9473 5.14645 13.8536C5.05268 13.7598 5 13.6326 5 13.5H4Z" fill="#8B887E"/>
</g>
<defs>
<filter id="filter0_d_76_1104" x="-1" y="0" width="23" height="23" filterUnits="userSpaceOnUse" color-interpolation-filters="sRGB">
<feFlood flood-opacity="0" result="BackgroundImageFix"/>
<feColorMatrix in="SourceAlpha" type="matrix" values="0 0 0 0 0 0 0 0 0 0 0 0 0 0 0 0 0 0 127 0" result="hardAlpha"/>
<feOffset dy="4"/>
<feGaussianBlur stdDeviation="2"/>
<feComposite in2="hardAlpha" operator="out"/>
<feColorMatrix type="matrix" values="0 0 0 0 0 0 0 0 0 0 0 0 0 0 0 0 0 0 0.25 0"/>
<feBlend mode="normal" in2="BackgroundImageFix" result="effect1_dropShadow_76_1104"/>
<feBlend mode="normal" in="SourceGraphic" in2="effect1_dropShadow_76_1104" result="shape"/>
</filter>
</defs>
</svg>
